<mxfile host="65bd71144e">
    <diagram id="Mb3e9VzoezsNKFa22Ejw" name="Página-1">
        <mxGraphModel dx="630" dy="393" grid="1" gridSize="10" guides="1" tooltips="1" connect="1" arrows="1" fold="1" page="1" pageScale="1" pageWidth="827" pageHeight="1169" math="0" shadow="0">
            <root>
                <mxCell id="0"/>
                <mxCell id="1" parent="0"/>
                <mxCell id="3" value="&lt;span style=&quot;font-family: &amp;quot;Söhne Mono&amp;quot;, Monaco, &amp;quot;Andale Mono&amp;quot;, &amp;quot;Ubuntu Mono&amp;quot;, monospace; text-align: left;&quot;&gt;&lt;font style=&quot;font-size: 16px;&quot;&gt;Participante&lt;/font&gt;&lt;/span&gt;" style="rounded=0;whiteSpace=wrap;html=1;fontColor=#000000;fillColor=#e3c800;strokeColor=#B09500;" parent="1" vertex="1">
                    <mxGeometry x="40" y="80" width="120" height="40" as="geometry"/>
                </mxCell>
                <mxCell id="21" style="edgeStyle=none;html=1;exitX=1;exitY=0.5;exitDx=0;exitDy=0;entryX=0;entryY=0.5;entryDx=0;entryDy=0;fontSize=16;fontColor=#000000;" parent="1" source="5" target="14" edge="1">
                    <mxGeometry relative="1" as="geometry"/>
                </mxCell>
                <mxCell id="5" value="&lt;span style=&quot;font-family: Söhne, ui-sans-serif, system-ui, -apple-system, &amp;quot;Segoe UI&amp;quot;, Roboto, Ubuntu, Cantarell, &amp;quot;Noto Sans&amp;quot;, sans-serif, &amp;quot;Helvetica Neue&amp;quot;, Arial, &amp;quot;Apple Color Emoji&amp;quot;, &amp;quot;Segoe UI Emoji&amp;quot;, &amp;quot;Segoe UI Symbol&amp;quot;, &amp;quot;Noto Color Emoji&amp;quot;; font-size: 14px;&quot;&gt;&lt;font&gt;Nombre completo&lt;/font&gt;&lt;/span&gt;" style="rounded=0;whiteSpace=wrap;html=1;labelBackgroundColor=none;fontColor=#ffffff;align=left;fillColor=#0050ef;strokeColor=#001DBC;" parent="1" vertex="1">
                    <mxGeometry x="40" y="150" width="120" height="30" as="geometry"/>
                </mxCell>
                <mxCell id="8" value="ID" style="rounded=0;whiteSpace=wrap;html=1;labelBackgroundColor=none;fontColor=#ffffff;align=left;fillColor=#0050ef;strokeColor=#001DBC;" parent="1" vertex="1">
                    <mxGeometry x="40" y="120" width="120" height="30" as="geometry"/>
                </mxCell>
                <mxCell id="9" value="&lt;span style=&quot;font-family: Söhne, ui-sans-serif, system-ui, -apple-system, &amp;quot;Segoe UI&amp;quot;, Roboto, Ubuntu, Cantarell, &amp;quot;Noto Sans&amp;quot;, sans-serif, &amp;quot;Helvetica Neue&amp;quot;, Arial, &amp;quot;Apple Color Emoji&amp;quot;, &amp;quot;Segoe UI Emoji&amp;quot;, &amp;quot;Segoe UI Symbol&amp;quot;, &amp;quot;Noto Color Emoji&amp;quot;;&quot;&gt;&lt;font style=&quot;font-size: 14px;&quot;&gt;Grado&lt;/font&gt;&lt;/span&gt;" style="rounded=0;whiteSpace=wrap;html=1;labelBackgroundColor=none;fontColor=#ffffff;align=left;fillColor=#0050ef;strokeColor=#001DBC;" parent="1" vertex="1">
                    <mxGeometry x="40" y="180" width="120" height="30" as="geometry"/>
                </mxCell>
                <mxCell id="10" value="&lt;span style=&quot;font-family: Söhne, ui-sans-serif, system-ui, -apple-system, &amp;quot;Segoe UI&amp;quot;, Roboto, Ubuntu, Cantarell, &amp;quot;Noto Sans&amp;quot;, sans-serif, &amp;quot;Helvetica Neue&amp;quot;, Arial, &amp;quot;Apple Color Emoji&amp;quot;, &amp;quot;Segoe UI Emoji&amp;quot;, &amp;quot;Segoe UI Symbol&amp;quot;, &amp;quot;Noto Color Emoji&amp;quot;;&quot;&gt;&lt;font style=&quot;font-size: 14px;&quot;&gt;Edad&lt;/font&gt;&lt;/span&gt;" style="rounded=0;whiteSpace=wrap;html=1;labelBackgroundColor=none;fontColor=#ffffff;align=left;fillColor=#0050ef;strokeColor=#001DBC;" parent="1" vertex="1">
                    <mxGeometry x="40" y="210" width="120" height="30" as="geometry"/>
                </mxCell>
                <mxCell id="11" value="&lt;span style=&quot;font-family: Söhne, ui-sans-serif, system-ui, -apple-system, &amp;quot;Segoe UI&amp;quot;, Roboto, Ubuntu, Cantarell, &amp;quot;Noto Sans&amp;quot;, sans-serif, &amp;quot;Helvetica Neue&amp;quot;, Arial, &amp;quot;Apple Color Emoji&amp;quot;, &amp;quot;Segoe UI Emoji&amp;quot;, &amp;quot;Segoe UI Symbol&amp;quot;, &amp;quot;Noto Color Emoji&amp;quot;;&quot;&gt;&lt;font style=&quot;font-size: 14px;&quot;&gt;Género&lt;/font&gt;&lt;/span&gt;" style="rounded=0;whiteSpace=wrap;html=1;labelBackgroundColor=none;fontColor=#ffffff;align=left;fillColor=#0050ef;strokeColor=#001DBC;" parent="1" vertex="1">
                    <mxGeometry x="40" y="240" width="120" height="30" as="geometry"/>
                </mxCell>
                <mxCell id="326" style="edgeStyle=none;html=1;exitX=0.5;exitY=0;exitDx=0;exitDy=0;entryX=0.5;entryY=0;entryDx=0;entryDy=0;" edge="1" parent="1" source="13" target="320">
                    <mxGeometry relative="1" as="geometry">
                        <Array as="points">
                            <mxPoint x="340" y="40"/>
                            <mxPoint x="830" y="40"/>
                        </Array>
                    </mxGeometry>
                </mxCell>
                <mxCell id="327" style="edgeStyle=none;html=1;exitX=1;exitY=0.5;exitDx=0;exitDy=0;entryX=0;entryY=0.5;entryDx=0;entryDy=0;" edge="1" parent="1" source="13" target="29">
                    <mxGeometry relative="1" as="geometry"/>
                </mxCell>
                <mxCell id="13" value="&lt;span style=&quot;font-family: Söhne, ui-sans-serif, system-ui, -apple-system, &amp;quot;Segoe UI&amp;quot;, Roboto, Ubuntu, Cantarell, &amp;quot;Noto Sans&amp;quot;, sans-serif, &amp;quot;Helvetica Neue&amp;quot;, Arial, &amp;quot;Apple Color Emoji&amp;quot;, &amp;quot;Segoe UI Emoji&amp;quot;, &amp;quot;Segoe UI Symbol&amp;quot;, &amp;quot;Noto Color Emoji&amp;quot;; font-size: 16px; text-align: left;&quot;&gt;&lt;font color=&quot;#000000&quot;&gt;Ronda&lt;/font&gt;&lt;/span&gt;" style="rounded=0;whiteSpace=wrap;html=1;fontColor=#FFFFFF;fillColor=#e3c800;strokeColor=#B09500;labelBackgroundColor=none;" parent="1" vertex="1">
                    <mxGeometry x="280" y="80" width="120" height="40" as="geometry"/>
                </mxCell>
                <mxCell id="14" value="&lt;span style=&quot;font-family: Söhne, ui-sans-serif, system-ui, -apple-system, &amp;quot;Segoe UI&amp;quot;, Roboto, Ubuntu, Cantarell, &amp;quot;Noto Sans&amp;quot;, sans-serif, &amp;quot;Helvetica Neue&amp;quot;, Arial, &amp;quot;Apple Color Emoji&amp;quot;, &amp;quot;Segoe UI Emoji&amp;quot;, &amp;quot;Segoe UI Symbol&amp;quot;, &amp;quot;Noto Color Emoji&amp;quot;;&quot;&gt;&lt;font style=&quot;font-size: 14px;&quot;&gt;Número&lt;/font&gt;&lt;/span&gt;" style="rounded=0;whiteSpace=wrap;html=1;labelBackgroundColor=none;fontColor=#FFFFFF;align=left;fillColor=#0050ef;strokeColor=#001DBC;" parent="1" vertex="1">
                    <mxGeometry x="280" y="150" width="120" height="30" as="geometry"/>
                </mxCell>
                <mxCell id="15" value="ID" style="rounded=0;whiteSpace=wrap;html=1;labelBackgroundColor=none;fontColor=#FFFFFF;align=left;fillColor=#0050ef;strokeColor=#001DBC;" parent="1" vertex="1">
                    <mxGeometry x="280" y="120" width="120" height="30" as="geometry"/>
                </mxCell>
                <mxCell id="16" value="&lt;span style=&quot;font-family: Söhne, ui-sans-serif, system-ui, -apple-system, &amp;quot;Segoe UI&amp;quot;, Roboto, Ubuntu, Cantarell, &amp;quot;Noto Sans&amp;quot;, sans-serif, &amp;quot;Helvetica Neue&amp;quot;, Arial, &amp;quot;Apple Color Emoji&amp;quot;, &amp;quot;Segoe UI Emoji&amp;quot;, &amp;quot;Segoe UI Symbol&amp;quot;, &amp;quot;Noto Color Emoji&amp;quot;; font-size: 14px;&quot;&gt;Palabra&lt;/span&gt;" style="rounded=0;whiteSpace=wrap;html=1;labelBackgroundColor=none;fontColor=#FFFFFF;align=left;fillColor=#0050ef;strokeColor=#001DBC;fontSize=14;" parent="1" vertex="1">
                    <mxGeometry x="280" y="180" width="120" height="30" as="geometry"/>
                </mxCell>
                <mxCell id="28" style="edgeStyle=none;html=1;exitX=0.75;exitY=1;exitDx=0;exitDy=0;entryX=0;entryY=0.5;entryDx=0;entryDy=0;fontSize=16;fontColor=#000000;" parent="1" source="18" target="22" edge="1">
                    <mxGeometry relative="1" as="geometry">
                        <Array as="points">
                            <mxPoint x="370" y="380"/>
                        </Array>
                    </mxGeometry>
                </mxCell>
                <mxCell id="18" value="&lt;span style=&quot;font-family: Söhne, ui-sans-serif, system-ui, -apple-system, &amp;quot;Segoe UI&amp;quot;, Roboto, Ubuntu, Cantarell, &amp;quot;Noto Sans&amp;quot;, sans-serif, &amp;quot;Helvetica Neue&amp;quot;, Arial, &amp;quot;Apple Color Emoji&amp;quot;, &amp;quot;Segoe UI Emoji&amp;quot;, &amp;quot;Segoe UI Symbol&amp;quot;, &amp;quot;Noto Color Emoji&amp;quot;; font-size: 14px;&quot;&gt;Estado&lt;/span&gt;" style="rounded=0;whiteSpace=wrap;html=1;labelBackgroundColor=none;fontColor=#FFFFFF;align=left;fillColor=#0050ef;strokeColor=#001DBC;fontSize=14;" parent="1" vertex="1">
                    <mxGeometry x="280" y="240" width="120" height="30" as="geometry"/>
                </mxCell>
                <mxCell id="20" value="&lt;font face=&quot;Söhne, ui-sans-serif, system-ui, -apple-system, Segoe UI, Roboto, Ubuntu, Cantarell, Noto Sans, sans-serif, Helvetica Neue, Arial, Apple Color Emoji, Segoe UI Emoji, Segoe UI Symbol, Noto Color Emoji&quot; style=&quot;font-size: 14px;&quot;&gt;&lt;span style=&quot;font-size: 14px;&quot;&gt;Fecha y hora&lt;/span&gt;&lt;/font&gt;" style="rounded=0;whiteSpace=wrap;html=1;labelBackgroundColor=none;fontColor=#FFFFFF;align=left;fillColor=#0050ef;strokeColor=#001DBC;fontSize=14;" parent="1" vertex="1">
                    <mxGeometry x="280" y="210" width="120" height="30" as="geometry"/>
                </mxCell>
                <mxCell id="36" style="edgeStyle=none;html=1;exitX=1;exitY=0.5;exitDx=0;exitDy=0;entryX=0.5;entryY=1;entryDx=0;entryDy=0;" edge="1" parent="1" source="22" target="33">
                    <mxGeometry relative="1" as="geometry">
                        <mxPoint x="740" y="320" as="targetPoint"/>
                        <Array as="points">
                            <mxPoint x="660" y="380"/>
                        </Array>
                    </mxGeometry>
                </mxCell>
                <mxCell id="22" value="&lt;span style=&quot;font-family: &amp;quot;Söhne Mono&amp;quot;, Monaco, &amp;quot;Andale Mono&amp;quot;, &amp;quot;Ubuntu Mono&amp;quot;, monospace; font-size: 14px; text-align: left;&quot;&gt;&lt;font color=&quot;#000000&quot;&gt;PalabraDeletreo&lt;/font&gt;&lt;/span&gt;" style="rounded=0;whiteSpace=wrap;html=1;fontColor=#FFFFFF;fillColor=#e3c800;strokeColor=#B09500;labelBackgroundColor=none;" parent="1" vertex="1">
                    <mxGeometry x="445" y="360" width="120" height="40" as="geometry"/>
                </mxCell>
                <mxCell id="23" value="&lt;font face=&quot;Söhne, ui-sans-serif, system-ui, -apple-system, Segoe UI, Roboto, Ubuntu, Cantarell, Noto Sans, sans-serif, Helvetica Neue, Arial, Apple Color Emoji, Segoe UI Emoji, Segoe UI Symbol, Noto Color Emoji&quot;&gt;&lt;span style=&quot;font-size: 14px;&quot;&gt;Palabra&lt;/span&gt;&lt;/font&gt;" style="rounded=0;whiteSpace=wrap;html=1;labelBackgroundColor=none;fontColor=#FFFFFF;align=left;fillColor=#0050ef;strokeColor=#001DBC;" parent="1" vertex="1">
                    <mxGeometry x="445" y="430" width="120" height="30" as="geometry"/>
                </mxCell>
                <mxCell id="24" value="ID" style="rounded=0;whiteSpace=wrap;html=1;labelBackgroundColor=none;fontColor=#FFFFFF;align=left;fillColor=#0050EF;strokeColor=#001DBC;" parent="1" vertex="1">
                    <mxGeometry x="445" y="400" width="120" height="30" as="geometry"/>
                </mxCell>
                <mxCell id="25" value="&lt;span style=&quot;font-family: Söhne, ui-sans-serif, system-ui, -apple-system, &amp;quot;Segoe UI&amp;quot;, Roboto, Ubuntu, Cantarell, &amp;quot;Noto Sans&amp;quot;, sans-serif, &amp;quot;Helvetica Neue&amp;quot;, Arial, &amp;quot;Apple Color Emoji&amp;quot;, &amp;quot;Segoe UI Emoji&amp;quot;, &amp;quot;Segoe UI Symbol&amp;quot;, &amp;quot;Noto Color Emoji&amp;quot;; font-size: 14px;&quot;&gt;Nivel de dificultad&lt;/span&gt;" style="rounded=0;whiteSpace=wrap;html=1;labelBackgroundColor=none;fontColor=#FFFFFF;align=left;fillColor=#0050ef;strokeColor=#001DBC;fontSize=14;" parent="1" vertex="1">
                    <mxGeometry x="445" y="460" width="120" height="30" as="geometry"/>
                </mxCell>
                <mxCell id="27" value="&lt;font face=&quot;Söhne, ui-sans-serif, system-ui, -apple-system, Segoe UI, Roboto, Ubuntu, Cantarell, Noto Sans, sans-serif, Helvetica Neue, Arial, Apple Color Emoji, Segoe UI Emoji, Segoe UI Symbol, Noto Color Emoji&quot;&gt;Descripcion&lt;/font&gt;" style="rounded=0;whiteSpace=wrap;html=1;labelBackgroundColor=none;fontColor=#FFFFFF;align=left;fillColor=#0050ef;strokeColor=#001DBC;fontSize=14;" parent="1" vertex="1">
                    <mxGeometry x="445" y="490" width="120" height="30" as="geometry"/>
                </mxCell>
                <mxCell id="325" style="edgeStyle=none;html=1;entryX=0;entryY=0.5;entryDx=0;entryDy=0;" edge="1" parent="1" source="29" target="320">
                    <mxGeometry relative="1" as="geometry">
                        <mxPoint x="759.9999999999998" y="100" as="targetPoint"/>
                    </mxGeometry>
                </mxCell>
                <mxCell id="29" value="&lt;span style=&quot;font-family: &amp;quot;Söhne Mono&amp;quot;, Monaco, &amp;quot;Andale Mono&amp;quot;, &amp;quot;Ubuntu Mono&amp;quot;, monospace; font-size: 14px; text-align: left;&quot;&gt;&lt;font color=&quot;#000000&quot;&gt;Participacion&lt;/font&gt;&lt;/span&gt;" style="rounded=0;whiteSpace=wrap;html=1;fontColor=#FFFFFF;fillColor=#e3c800;strokeColor=#B09500;labelBackgroundColor=none;" vertex="1" parent="1">
                    <mxGeometry x="600" y="80" width="120" height="40" as="geometry"/>
                </mxCell>
                <mxCell id="30" value="&lt;font face=&quot;Söhne, ui-sans-serif, system-ui, -apple-system, Segoe UI, Roboto, Ubuntu, Cantarell, Noto Sans, sans-serif, Helvetica Neue, Arial, Apple Color Emoji, Segoe UI Emoji, Segoe UI Symbol, Noto Color Emoji&quot;&gt;&lt;span style=&quot;font-size: 14px;&quot;&gt;Ronda&lt;/span&gt;&lt;/font&gt;" style="rounded=0;whiteSpace=wrap;html=1;labelBackgroundColor=none;fontColor=#FFFFFF;align=left;fillColor=#0050ef;strokeColor=#001DBC;" vertex="1" parent="1">
                    <mxGeometry x="600" y="150" width="120" height="30" as="geometry"/>
                </mxCell>
                <mxCell id="31" value="ID" style="rounded=0;whiteSpace=wrap;html=1;labelBackgroundColor=none;fontColor=#FFFFFF;align=left;fillColor=#0050ef;strokeColor=#001DBC;" vertex="1" parent="1">
                    <mxGeometry x="600" y="120" width="120" height="30" as="geometry"/>
                </mxCell>
                <mxCell id="32" value="&lt;span style=&quot;font-family: Söhne, ui-sans-serif, system-ui, -apple-system, &amp;quot;Segoe UI&amp;quot;, Roboto, Ubuntu, Cantarell, &amp;quot;Noto Sans&amp;quot;, sans-serif, &amp;quot;Helvetica Neue&amp;quot;, Arial, &amp;quot;Apple Color Emoji&amp;quot;, &amp;quot;Segoe UI Emoji&amp;quot;, &amp;quot;Segoe UI Symbol&amp;quot;, &amp;quot;Noto Color Emoji&amp;quot;; font-size: 14px;&quot;&gt;Participante&lt;/span&gt;" style="rounded=0;whiteSpace=wrap;html=1;labelBackgroundColor=none;fontColor=#FFFFFF;align=left;fillColor=#0050ef;strokeColor=#001DBC;fontSize=14;" vertex="1" parent="1">
                    <mxGeometry x="600" y="180" width="120" height="30" as="geometry"/>
                </mxCell>
                <mxCell id="33" value="&lt;font face=&quot;Söhne, ui-sans-serif, system-ui, -apple-system, Segoe UI, Roboto, Ubuntu, Cantarell, Noto Sans, sans-serif, Helvetica Neue, Arial, Apple Color Emoji, Segoe UI Emoji, Segoe UI Symbol, Noto Color Emoji&quot;&gt;Palablra&lt;/font&gt;" style="rounded=0;whiteSpace=wrap;html=1;labelBackgroundColor=none;fontColor=#FFFFFF;align=left;fillColor=#0050ef;strokeColor=#001DBC;fontSize=14;" vertex="1" parent="1">
                    <mxGeometry x="600" y="210" width="120" height="30" as="geometry"/>
                </mxCell>
                <mxCell id="35" value="&lt;font face=&quot;Söhne, ui-sans-serif, system-ui, -apple-system, Segoe UI, Roboto, Ubuntu, Cantarell, Noto Sans, sans-serif, Helvetica Neue, Arial, Apple Color Emoji, Segoe UI Emoji, Segoe UI Symbol, Noto Color Emoji&quot;&gt;EsCorrecto&lt;/font&gt;" style="rounded=0;whiteSpace=wrap;html=1;labelBackgroundColor=none;fontColor=#FFFFFF;align=left;fillColor=#0050ef;strokeColor=#001DBC;fontSize=14;" vertex="1" parent="1">
                    <mxGeometry x="770" y="180" width="120" height="30" as="geometry"/>
                </mxCell>
                <mxCell id="37" value="&lt;font face=&quot;Söhne, ui-sans-serif, system-ui, -apple-system, Segoe UI, Roboto, Ubuntu, Cantarell, Noto Sans, sans-serif, Helvetica Neue, Arial, Apple Color Emoji, Segoe UI Emoji, Segoe UI Symbol, Noto Color Emoji&quot;&gt;EsIncorrecto&lt;/font&gt;" style="rounded=0;whiteSpace=wrap;html=1;labelBackgroundColor=none;fontColor=#FFFFFF;align=left;fillColor=#0050ef;strokeColor=#001DBC;fontSize=14;" vertex="1" parent="1">
                    <mxGeometry x="770" y="210" width="120" height="30" as="geometry"/>
                </mxCell>
                <mxCell id="257" value="&lt;font style=&quot;font-size: 21px;&quot;&gt;Deletreo&lt;/font&gt;" style="whiteSpace=wrap;html=1;fontColor=#FFFFFF;fillColor=#1ba1e2;strokeColor=#006EAF;" vertex="1" parent="1">
                    <mxGeometry x="85" y="630" width="170" height="40" as="geometry"/>
                </mxCell>
                <mxCell id="272" style="edgeStyle=none;html=1;exitX=1;exitY=0.25;exitDx=0;exitDy=0;fontSize=23;entryX=0;entryY=0.5;entryDx=0;entryDy=0;fillColor=#1ba1e2;strokeColor=#FFFFFF;fontColor=#FFFFFF;" edge="1" parent="1" source="274" target="295">
                    <mxGeometry relative="1" as="geometry">
                        <mxPoint x="635" y="853" as="targetPoint"/>
                    </mxGeometry>
                </mxCell>
                <mxCell id="274" value="&lt;font style=&quot;font-size: 20px;&quot;&gt;Participante&lt;/font&gt;" style="whiteSpace=wrap;html=1;fillColor=#1ba1e2;fontColor=#FFFFFF;strokeColor=#006EAF;" vertex="1" parent="1">
                    <mxGeometry x="315" y="840" width="190" height="50" as="geometry"/>
                </mxCell>
                <mxCell id="275" value="" style="edgeStyle=none;html=1;fontSize=23;entryX=0;entryY=0.25;entryDx=0;entryDy=0;fontColor=#FFFFFF;fillColor=#1ba1e2;strokeColor=#FFFFFF;exitX=0.438;exitY=1.006;exitDx=0;exitDy=0;exitPerimeter=0;" edge="1" parent="1" source="257" target="274">
                    <mxGeometry relative="1" as="geometry">
                        <Array as="points">
                            <mxPoint x="150" y="850"/>
                        </Array>
                        <mxPoint x="180" y="750" as="sourcePoint"/>
                    </mxGeometry>
                </mxCell>
                <mxCell id="277" style="edgeStyle=none;html=1;exitX=1;exitY=1;exitDx=0;exitDy=0;entryX=0.25;entryY=0;entryDx=0;entryDy=0;fontSize=12;fontColor=#FFFFFF;fillColor=#1ba1e2;strokeColor=#FFFFFF;" edge="1" parent="1" source="278" target="274">
                    <mxGeometry relative="1" as="geometry"/>
                </mxCell>
                <mxCell id="278" value="&lt;span style=&quot;font-size: 12px; text-align: left;&quot;&gt;ID&lt;/span&gt;" style="ellipse;whiteSpace=wrap;html=1;fontSize=17;fillColor=#1ba1e2;fontColor=#FFFFFF;strokeColor=#006EAF;" vertex="1" parent="1">
                    <mxGeometry x="255" y="770" width="100" height="40" as="geometry"/>
                </mxCell>
                <mxCell id="279" style="edgeStyle=none;html=1;exitX=0.5;exitY=1;exitDx=0;exitDy=0;entryX=0.5;entryY=0;entryDx=0;entryDy=0;fontSize=12;fontColor=#FFFFFF;fillColor=#1ba1e2;strokeColor=#FFFFFF;" edge="1" parent="1" source="280" target="274">
                    <mxGeometry relative="1" as="geometry"/>
                </mxCell>
                <mxCell id="280" value="&lt;span style=&quot;font-family: Söhne, ui-sans-serif, system-ui, -apple-system, &amp;quot;Segoe UI&amp;quot;, Roboto, Ubuntu, Cantarell, &amp;quot;Noto Sans&amp;quot;, sans-serif, &amp;quot;Helvetica Neue&amp;quot;, Arial, &amp;quot;Apple Color Emoji&amp;quot;, &amp;quot;Segoe UI Emoji&amp;quot;, &amp;quot;Segoe UI Symbol&amp;quot;, &amp;quot;Noto Color Emoji&amp;quot;; font-size: 14px; text-align: left;&quot;&gt;Nombre completo&lt;/span&gt;" style="ellipse;whiteSpace=wrap;html=1;fontSize=17;fillColor=#1ba1e2;fontColor=#FFFFFF;strokeColor=#006EAF;" vertex="1" parent="1">
                    <mxGeometry x="360" y="770" width="100" height="40" as="geometry"/>
                </mxCell>
                <mxCell id="283" style="edgeStyle=none;html=1;exitX=0.5;exitY=1;exitDx=0;exitDy=0;fontSize=12;fontColor=#FFFFFF;fillColor=#1ba1e2;strokeColor=#FFFFFF;entryX=0.812;entryY=-0.002;entryDx=0;entryDy=0;entryPerimeter=0;" edge="1" parent="1" source="284" target="274">
                    <mxGeometry relative="1" as="geometry">
                        <mxPoint x="475" y="850" as="targetPoint"/>
                    </mxGeometry>
                </mxCell>
                <mxCell id="284" value="&lt;span style=&quot;font-family: Söhne, ui-sans-serif, system-ui, -apple-system, &amp;quot;Segoe UI&amp;quot;, Roboto, Ubuntu, Cantarell, &amp;quot;Noto Sans&amp;quot;, sans-serif, &amp;quot;Helvetica Neue&amp;quot;, Arial, &amp;quot;Apple Color Emoji&amp;quot;, &amp;quot;Segoe UI Emoji&amp;quot;, &amp;quot;Segoe UI Symbol&amp;quot;, &amp;quot;Noto Color Emoji&amp;quot;; font-size: 14px; text-align: left;&quot;&gt;Grado&lt;/span&gt;" style="ellipse;whiteSpace=wrap;html=1;fontSize=17;fillColor=#1ba1e2;strokeColor=#006EAF;fontColor=#FFFFFF;" vertex="1" parent="1">
                    <mxGeometry x="485" y="770" width="100" height="40" as="geometry"/>
                </mxCell>
                <mxCell id="293" style="edgeStyle=none;html=1;exitX=1;exitY=0.5;exitDx=0;exitDy=0;entryX=0;entryY=0.25;entryDx=0;entryDy=0;fontSize=23;fontColor=#FFFFFF;fillColor=#1ba1e2;strokeColor=#FFFFFF;" edge="1" parent="1" source="295" target="296">
                    <mxGeometry relative="1" as="geometry"/>
                </mxCell>
                <mxCell id="295" value="N:1" style="rhombus;whiteSpace=wrap;html=1;fontSize=23;fillColor=#1ba1e2;fontColor=#FFFFFF;strokeColor=#006EAF;" vertex="1" parent="1">
                    <mxGeometry x="625" y="810" width="80" height="80" as="geometry"/>
                </mxCell>
                <mxCell id="328" style="edgeStyle=none;html=1;exitX=0.5;exitY=1;exitDx=0;exitDy=0;entryX=1;entryY=0.5;entryDx=0;entryDy=0;fontColor=#FFFFFF;" edge="1" parent="1" source="296" target="309">
                    <mxGeometry relative="1" as="geometry">
                        <Array as="points">
                            <mxPoint x="905" y="1190"/>
                        </Array>
                    </mxGeometry>
                </mxCell>
                <mxCell id="351" style="edgeStyle=none;html=1;exitX=0.5;exitY=1;exitDx=0;exitDy=0;fontColor=#FFFFFF;entryX=0.5;entryY=0;entryDx=0;entryDy=0;" edge="1" parent="1" source="296" target="329">
                    <mxGeometry relative="1" as="geometry">
                        <mxPoint x="905" y="1240" as="targetPoint"/>
                    </mxGeometry>
                </mxCell>
                <mxCell id="363" style="edgeStyle=none;html=1;exitX=0.5;exitY=1;exitDx=0;exitDy=0;entryX=0;entryY=0.5;entryDx=0;entryDy=0;fontColor=#FFFFFF;" edge="1" parent="1" source="296" target="340">
                    <mxGeometry relative="1" as="geometry">
                        <Array as="points">
                            <mxPoint x="905" y="1190"/>
                        </Array>
                    </mxGeometry>
                </mxCell>
                <mxCell id="296" value="&lt;font style=&quot;font-size: 19px;&quot;&gt;Ronda&lt;/font&gt;" style="whiteSpace=wrap;html=1;fontSize=23;fillColor=#1ba1e2;fontColor=#FFFFFF;strokeColor=#006EAF;" vertex="1" parent="1">
                    <mxGeometry x="825" y="840" width="160" height="50" as="geometry"/>
                </mxCell>
                <mxCell id="297" style="edgeStyle=none;html=1;exitX=1;exitY=1;exitDx=0;exitDy=0;entryX=0.25;entryY=0;entryDx=0;entryDy=0;fontSize=12;fontColor=#FFFFFF;fillColor=#1ba1e2;strokeColor=#FFFFFF;" edge="1" parent="1" source="298">
                    <mxGeometry relative="1" as="geometry">
                        <mxPoint x="862.5" y="840" as="targetPoint"/>
                    </mxGeometry>
                </mxCell>
                <mxCell id="298" value="&lt;span style=&quot;font-size: 12px; text-align: left;&quot;&gt;ID&lt;/span&gt;" style="ellipse;whiteSpace=wrap;html=1;fontSize=17;fillColor=#1ba1e2;fontColor=#FFFFFF;strokeColor=#006EAF;" vertex="1" parent="1">
                    <mxGeometry x="755" y="770" width="100" height="40" as="geometry"/>
                </mxCell>
                <mxCell id="299" style="edgeStyle=none;html=1;exitX=0.5;exitY=1;exitDx=0;exitDy=0;entryX=0.5;entryY=0;entryDx=0;entryDy=0;fontSize=12;fontColor=#FFFFFF;fillColor=#1ba1e2;strokeColor=#FFFFFF;" edge="1" parent="1" source="300">
                    <mxGeometry relative="1" as="geometry">
                        <mxPoint x="910" y="840" as="targetPoint"/>
                    </mxGeometry>
                </mxCell>
                <mxCell id="300" value="&lt;span style=&quot;font-family: Söhne, ui-sans-serif, system-ui, -apple-system, &amp;quot;Segoe UI&amp;quot;, Roboto, Ubuntu, Cantarell, &amp;quot;Noto Sans&amp;quot;, sans-serif, &amp;quot;Helvetica Neue&amp;quot;, Arial, &amp;quot;Apple Color Emoji&amp;quot;, &amp;quot;Segoe UI Emoji&amp;quot;, &amp;quot;Segoe UI Symbol&amp;quot;, &amp;quot;Noto Color Emoji&amp;quot;; font-size: 14px; text-align: left;&quot;&gt;Número&lt;/span&gt;" style="ellipse;whiteSpace=wrap;html=1;fontSize=17;fillColor=#1ba1e2;fontColor=#FFFFFF;strokeColor=#006EAF;" vertex="1" parent="1">
                    <mxGeometry x="860" y="760" width="100" height="40" as="geometry"/>
                </mxCell>
                <mxCell id="301" style="edgeStyle=none;html=1;exitX=0.5;exitY=1;exitDx=0;exitDy=0;entryX=0.75;entryY=0;entryDx=0;entryDy=0;fontSize=12;fontColor=#FFFFFF;fillColor=#1ba1e2;strokeColor=#FFFFFF;" edge="1" parent="1" source="302">
                    <mxGeometry relative="1" as="geometry">
                        <mxPoint x="957.5" y="840" as="targetPoint"/>
                    </mxGeometry>
                </mxCell>
                <mxCell id="302" value="&lt;span style=&quot;font-family: Söhne, ui-sans-serif, system-ui, -apple-system, &amp;quot;Segoe UI&amp;quot;, Roboto, Ubuntu, Cantarell, &amp;quot;Noto Sans&amp;quot;, sans-serif, &amp;quot;Helvetica Neue&amp;quot;, Arial, &amp;quot;Apple Color Emoji&amp;quot;, &amp;quot;Segoe UI Emoji&amp;quot;, &amp;quot;Segoe UI Symbol&amp;quot;, &amp;quot;Noto Color Emoji&amp;quot;; font-size: 14px; text-align: left;&quot;&gt;Fecha y hora&lt;/span&gt;" style="ellipse;whiteSpace=wrap;html=1;fontSize=17;fillColor=#1ba1e2;fontColor=#FFFFFF;strokeColor=#006EAF;" vertex="1" parent="1">
                    <mxGeometry x="975" y="770" width="100" height="40" as="geometry"/>
                </mxCell>
                <mxCell id="303" style="edgeStyle=none;html=1;exitX=1;exitY=1;exitDx=0;exitDy=0;entryX=0.25;entryY=1;entryDx=0;entryDy=0;fontSize=12;fontColor=#FFFFFF;fillColor=#1ba1e2;strokeColor=#FFFFFF;" edge="1" parent="1" source="304" target="274">
                    <mxGeometry relative="1" as="geometry">
                        <mxPoint x="372.5" y="1000" as="targetPoint"/>
                    </mxGeometry>
                </mxCell>
                <mxCell id="304" value="&lt;span style=&quot;font-family: Söhne, ui-sans-serif, system-ui, -apple-system, &amp;quot;Segoe UI&amp;quot;, Roboto, Ubuntu, Cantarell, &amp;quot;Noto Sans&amp;quot;, sans-serif, &amp;quot;Helvetica Neue&amp;quot;, Arial, &amp;quot;Apple Color Emoji&amp;quot;, &amp;quot;Segoe UI Emoji&amp;quot;, &amp;quot;Segoe UI Symbol&amp;quot;, &amp;quot;Noto Color Emoji&amp;quot;; font-size: 14px; text-align: left;&quot;&gt;Edad&lt;/span&gt;" style="ellipse;whiteSpace=wrap;html=1;fontSize=17;fillColor=#1ba1e2;fontColor=#FFFFFF;strokeColor=#006EAF;" vertex="1" parent="1">
                    <mxGeometry x="265" y="930" width="100" height="40" as="geometry"/>
                </mxCell>
                <mxCell id="307" style="edgeStyle=none;html=1;exitX=0.5;exitY=1;exitDx=0;exitDy=0;entryX=0.75;entryY=1;entryDx=0;entryDy=0;fontSize=12;fontColor=#FFFFFF;fillColor=#1ba1e2;strokeColor=#FFFFFF;" edge="1" parent="1" source="308" target="274">
                    <mxGeometry relative="1" as="geometry">
                        <mxPoint x="467.5" y="1000" as="targetPoint"/>
                    </mxGeometry>
                </mxCell>
                <mxCell id="308" value="&lt;span style=&quot;font-family: Söhne, ui-sans-serif, system-ui, -apple-system, &amp;quot;Segoe UI&amp;quot;, Roboto, Ubuntu, Cantarell, &amp;quot;Noto Sans&amp;quot;, sans-serif, &amp;quot;Helvetica Neue&amp;quot;, Arial, &amp;quot;Apple Color Emoji&amp;quot;, &amp;quot;Segoe UI Emoji&amp;quot;, &amp;quot;Segoe UI Symbol&amp;quot;, &amp;quot;Noto Color Emoji&amp;quot;; font-size: 14px; text-align: left;&quot;&gt;Género&lt;/span&gt;" style="ellipse;whiteSpace=wrap;html=1;fontSize=17;fillColor=#1ba1e2;fontColor=#FFFFFF;strokeColor=#006EAF;" vertex="1" parent="1">
                    <mxGeometry x="485" y="930" width="100" height="40" as="geometry"/>
                </mxCell>
                <mxCell id="355" style="edgeStyle=none;html=1;exitX=0.5;exitY=1;exitDx=0;exitDy=0;entryX=0;entryY=0.5;entryDx=0;entryDy=0;fontColor=#FFFFFF;" edge="1" parent="1" source="309" target="329">
                    <mxGeometry relative="1" as="geometry">
                        <Array as="points">
                            <mxPoint x="540" y="1340"/>
                        </Array>
                    </mxGeometry>
                </mxCell>
                <mxCell id="309" value="&lt;span style=&quot;font-family: &amp;quot;Söhne Mono&amp;quot;, Monaco, &amp;quot;Andale Mono&amp;quot;, &amp;quot;Ubuntu Mono&amp;quot;, monospace; font-size: 14px; text-align: left;&quot;&gt;PalabraDeletreo&lt;/span&gt;" style="whiteSpace=wrap;html=1;fontColor=#FFFFFF;fillColor=#1ba1e2;strokeColor=#006EAF;" vertex="1" parent="1">
                    <mxGeometry x="435" y="1170" width="210" height="40" as="geometry"/>
                </mxCell>
                <mxCell id="310" style="edgeStyle=none;html=1;exitX=1;exitY=1;exitDx=0;exitDy=0;entryX=0.25;entryY=0;entryDx=0;entryDy=0;fontSize=12;fontColor=#FFFFFF;fillColor=#1ba1e2;strokeColor=#FFFFFF;" edge="1" parent="1" source="311" target="309">
                    <mxGeometry relative="1" as="geometry"/>
                </mxCell>
                <mxCell id="311" value="&lt;span style=&quot;font-size: 12px; text-align: left;&quot;&gt;ID&lt;/span&gt;" style="ellipse;whiteSpace=wrap;html=1;fontSize=17;fontColor=#FFFFFF;fillColor=#1ba1e2;strokeColor=#006EAF;" vertex="1" parent="1">
                    <mxGeometry x="395" y="1100" width="100" height="40" as="geometry"/>
                </mxCell>
                <mxCell id="312" style="edgeStyle=none;html=1;exitX=0.5;exitY=1;exitDx=0;exitDy=0;entryX=0.5;entryY=0;entryDx=0;entryDy=0;fontSize=12;fontColor=#FFFFFF;fillColor=#1ba1e2;strokeColor=#FFFFFF;" edge="1" parent="1" source="313" target="309">
                    <mxGeometry relative="1" as="geometry"/>
                </mxCell>
                <mxCell id="313" value="&lt;span style=&quot;font-family: Söhne, ui-sans-serif, system-ui, -apple-system, &amp;quot;Segoe UI&amp;quot;, Roboto, Ubuntu, Cantarell, &amp;quot;Noto Sans&amp;quot;, sans-serif, &amp;quot;Helvetica Neue&amp;quot;, Arial, &amp;quot;Apple Color Emoji&amp;quot;, &amp;quot;Segoe UI Emoji&amp;quot;, &amp;quot;Segoe UI Symbol&amp;quot;, &amp;quot;Noto Color Emoji&amp;quot;; font-size: 14px; text-align: left;&quot;&gt;Palabra&lt;/span&gt;" style="ellipse;whiteSpace=wrap;html=1;fontSize=17;fontColor=#FFFFFF;fillColor=#1ba1e2;strokeColor=#006EAF;" vertex="1" parent="1">
                    <mxGeometry x="510" y="1100" width="100" height="40" as="geometry"/>
                </mxCell>
                <mxCell id="314" style="edgeStyle=none;html=1;exitX=0.5;exitY=1;exitDx=0;exitDy=0;fontSize=12;fontColor=#FFFFFF;fillColor=#1ba1e2;strokeColor=#FFFFFF;entryX=0.886;entryY=-0.047;entryDx=0;entryDy=0;entryPerimeter=0;" edge="1" parent="1" source="315" target="309">
                    <mxGeometry relative="1" as="geometry">
                        <mxPoint x="615" y="1180" as="targetPoint"/>
                    </mxGeometry>
                </mxCell>
                <mxCell id="315" value="&lt;span style=&quot;font-family: Söhne, ui-sans-serif, system-ui, -apple-system, &amp;quot;Segoe UI&amp;quot;, Roboto, Ubuntu, Cantarell, &amp;quot;Noto Sans&amp;quot;, sans-serif, &amp;quot;Helvetica Neue&amp;quot;, Arial, &amp;quot;Apple Color Emoji&amp;quot;, &amp;quot;Segoe UI Emoji&amp;quot;, &amp;quot;Segoe UI Symbol&amp;quot;, &amp;quot;Noto Color Emoji&amp;quot;; font-size: 14px; text-align: left;&quot;&gt;Nivel de dificultad&lt;/span&gt;" style="ellipse;whiteSpace=wrap;html=1;fontSize=17;fontColor=#FFFFFF;fillColor=#1ba1e2;strokeColor=#006EAF;" vertex="1" parent="1">
                    <mxGeometry x="625" y="1100" width="100" height="40" as="geometry"/>
                </mxCell>
                <mxCell id="316" style="edgeStyle=none;html=1;exitX=1;exitY=1;exitDx=0;exitDy=0;entryX=0.343;entryY=1.025;entryDx=0;entryDy=0;fontSize=12;fontColor=#FFFFFF;entryPerimeter=0;fillColor=#1ba1e2;strokeColor=#FFFFFF;" edge="1" parent="1" source="317" target="309">
                    <mxGeometry relative="1" as="geometry">
                        <mxPoint x="512.5" y="1330" as="targetPoint"/>
                    </mxGeometry>
                </mxCell>
                <mxCell id="317" value="&lt;span style=&quot;font-family: Söhne, ui-sans-serif, system-ui, -apple-system, &amp;quot;Segoe UI&amp;quot;, Roboto, Ubuntu, Cantarell, &amp;quot;Noto Sans&amp;quot;, sans-serif, &amp;quot;Helvetica Neue&amp;quot;, Arial, &amp;quot;Apple Color Emoji&amp;quot;, &amp;quot;Segoe UI Emoji&amp;quot;, &amp;quot;Segoe UI Symbol&amp;quot;, &amp;quot;Noto Color Emoji&amp;quot;; font-size: 14px; text-align: left;&quot;&gt;Descripcion&lt;/span&gt;" style="ellipse;whiteSpace=wrap;html=1;fontSize=17;fontColor=#FFFFFF;fillColor=#1ba1e2;strokeColor=#006EAF;" vertex="1" parent="1">
                    <mxGeometry x="405" y="1250" width="100" height="40" as="geometry"/>
                </mxCell>
                <mxCell id="320" value="&lt;span style=&quot;font-family: &amp;quot;Söhne Mono&amp;quot;, Monaco, &amp;quot;Andale Mono&amp;quot;, &amp;quot;Ubuntu Mono&amp;quot;, monospace; font-size: 14px; text-align: left;&quot;&gt;&lt;font color=&quot;#000000&quot;&gt;Resultado&lt;/font&gt;&lt;/span&gt;" style="rounded=0;whiteSpace=wrap;html=1;fontColor=#FFFFFF;fillColor=#e3c800;strokeColor=#B09500;labelBackgroundColor=none;" vertex="1" parent="1">
                    <mxGeometry x="770" y="80" width="120" height="40" as="geometry"/>
                </mxCell>
                <mxCell id="321" value="&lt;font face=&quot;Söhne, ui-sans-serif, system-ui, -apple-system, Segoe UI, Roboto, Ubuntu, Cantarell, Noto Sans, sans-serif, Helvetica Neue, Arial, Apple Color Emoji, Segoe UI Emoji, Segoe UI Symbol, Noto Color Emoji&quot;&gt;&lt;span style=&quot;font-size: 14px;&quot;&gt;Palabra&lt;/span&gt;&lt;/font&gt;" style="rounded=0;whiteSpace=wrap;html=1;labelBackgroundColor=none;fontColor=#FFFFFF;align=left;fillColor=#0050ef;strokeColor=#001DBC;" vertex="1" parent="1">
                    <mxGeometry x="770" y="150" width="120" height="30" as="geometry"/>
                </mxCell>
                <mxCell id="322" value="ID" style="rounded=0;whiteSpace=wrap;html=1;labelBackgroundColor=none;fontColor=#FFFFFF;align=left;fillColor=#0050EF;strokeColor=#001DBC;" vertex="1" parent="1">
                    <mxGeometry x="770" y="120" width="120" height="30" as="geometry"/>
                </mxCell>
                <mxCell id="354" value="" style="edgeStyle=none;html=1;fontColor=#FFFFFF;entryX=0.5;entryY=1;entryDx=0;entryDy=0;" edge="1" parent="1" source="329" target="340">
                    <mxGeometry relative="1" as="geometry">
                        <mxPoint x="1155" y="1340.0000000000002" as="targetPoint"/>
                        <Array as="points">
                            <mxPoint x="1250" y="1340"/>
                        </Array>
                    </mxGeometry>
                </mxCell>
                <mxCell id="329" value="&lt;span style=&quot;font-family: &amp;quot;Söhne Mono&amp;quot;, Monaco, &amp;quot;Andale Mono&amp;quot;, &amp;quot;Ubuntu Mono&amp;quot;, monospace; font-size: 14px; text-align: left;&quot;&gt;Participacion&lt;/span&gt;" style="whiteSpace=wrap;html=1;fontColor=#FFFFFF;fillColor=#1ba1e2;strokeColor=#006EAF;" vertex="1" parent="1">
                    <mxGeometry x="800" y="1320" width="210" height="40" as="geometry"/>
                </mxCell>
                <mxCell id="330" style="edgeStyle=none;html=1;exitX=1;exitY=1;exitDx=0;exitDy=0;entryX=0.25;entryY=0;entryDx=0;entryDy=0;fontSize=12;fontColor=#FFFFFF;fillColor=#1ba1e2;strokeColor=#FFFFFF;" edge="1" parent="1" source="331" target="329">
                    <mxGeometry relative="1" as="geometry"/>
                </mxCell>
                <mxCell id="331" value="&lt;span style=&quot;font-size: 12px; text-align: left;&quot;&gt;ID&lt;/span&gt;" style="ellipse;whiteSpace=wrap;html=1;fontSize=17;fontColor=#FFFFFF;fillColor=#1ba1e2;strokeColor=#006EAF;" vertex="1" parent="1">
                    <mxGeometry x="760" y="1250" width="100" height="40" as="geometry"/>
                </mxCell>
                <mxCell id="334" style="edgeStyle=none;html=1;exitX=0.5;exitY=1;exitDx=0;exitDy=0;fontSize=12;fontColor=#FFFFFF;fillColor=#1ba1e2;strokeColor=#FFFFFF;entryX=0.795;entryY=-0.032;entryDx=0;entryDy=0;entryPerimeter=0;" edge="1" parent="1" source="335" target="329">
                    <mxGeometry relative="1" as="geometry">
                        <mxPoint x="980" y="1330" as="targetPoint"/>
                    </mxGeometry>
                </mxCell>
                <mxCell id="335" value="&lt;span style=&quot;font-family: Söhne, ui-sans-serif, system-ui, -apple-system, &amp;quot;Segoe UI&amp;quot;, Roboto, Ubuntu, Cantarell, &amp;quot;Noto Sans&amp;quot;, sans-serif, &amp;quot;Helvetica Neue&amp;quot;, Arial, &amp;quot;Apple Color Emoji&amp;quot;, &amp;quot;Segoe UI Emoji&amp;quot;, &amp;quot;Segoe UI Symbol&amp;quot;, &amp;quot;Noto Color Emoji&amp;quot;; font-size: 14px; text-align: left;&quot;&gt;Participante&lt;/span&gt;" style="ellipse;whiteSpace=wrap;html=1;fontSize=17;fontColor=#FFFFFF;fillColor=#1ba1e2;strokeColor=#006EAF;" vertex="1" parent="1">
                    <mxGeometry x="990" y="1250" width="100" height="40" as="geometry"/>
                </mxCell>
                <mxCell id="336" style="edgeStyle=none;html=1;exitX=1;exitY=1;exitDx=0;exitDy=0;entryX=0.343;entryY=1.025;entryDx=0;entryDy=0;fontSize=12;fontColor=#FFFFFF;entryPerimeter=0;fillColor=#1ba1e2;strokeColor=#FFFFFF;" edge="1" parent="1" source="337" target="329">
                    <mxGeometry relative="1" as="geometry">
                        <mxPoint x="877.5" y="1480" as="targetPoint"/>
                    </mxGeometry>
                </mxCell>
                <mxCell id="337" value="&lt;span style=&quot;font-family: Söhne, ui-sans-serif, system-ui, -apple-system, &amp;quot;Segoe UI&amp;quot;, Roboto, Ubuntu, Cantarell, &amp;quot;Noto Sans&amp;quot;, sans-serif, &amp;quot;Helvetica Neue&amp;quot;, Arial, &amp;quot;Apple Color Emoji&amp;quot;, &amp;quot;Segoe UI Emoji&amp;quot;, &amp;quot;Segoe UI Symbol&amp;quot;, &amp;quot;Noto Color Emoji&amp;quot;; font-size: 14px; text-align: left;&quot;&gt;Ronda&lt;/span&gt;" style="ellipse;whiteSpace=wrap;html=1;fontSize=17;fontColor=#FFFFFF;fillColor=#1ba1e2;strokeColor=#006EAF;" vertex="1" parent="1">
                    <mxGeometry x="770" y="1400" width="100" height="40" as="geometry"/>
                </mxCell>
                <mxCell id="338" style="edgeStyle=none;html=1;exitX=0.5;exitY=1;exitDx=0;exitDy=0;entryX=0.605;entryY=1.025;entryDx=0;entryDy=0;fontSize=12;fontColor=#FFFFFF;entryPerimeter=0;fillColor=#1ba1e2;strokeColor=#FFFFFF;" edge="1" parent="1" source="339" target="329">
                    <mxGeometry relative="1" as="geometry">
                        <mxPoint x="925" y="1480" as="targetPoint"/>
                    </mxGeometry>
                </mxCell>
                <mxCell id="339" value="&lt;span style=&quot;font-family: Söhne, ui-sans-serif, system-ui, -apple-system, &amp;quot;Segoe UI&amp;quot;, Roboto, Ubuntu, Cantarell, &amp;quot;Noto Sans&amp;quot;, sans-serif, &amp;quot;Helvetica Neue&amp;quot;, Arial, &amp;quot;Apple Color Emoji&amp;quot;, &amp;quot;Segoe UI Emoji&amp;quot;, &amp;quot;Segoe UI Symbol&amp;quot;, &amp;quot;Noto Color Emoji&amp;quot;; font-size: 14px; text-align: left;&quot;&gt;Palablra&lt;/span&gt;" style="ellipse;whiteSpace=wrap;html=1;fontSize=17;fontColor=#FFFFFF;fillColor=#1ba1e2;strokeColor=#006EAF;" vertex="1" parent="1">
                    <mxGeometry x="930" y="1400" width="100" height="40" as="geometry"/>
                </mxCell>
                <mxCell id="340" value="&lt;font style=&quot;font-size: 17px;&quot;&gt;Instrutores&lt;/font&gt;" style="whiteSpace=wrap;html=1;fontColor=#FFFFFF;fillColor=#1ba1e2;strokeColor=#006EAF;" vertex="1" parent="1">
                    <mxGeometry x="1145" y="1170" width="210" height="40" as="geometry"/>
                </mxCell>
                <mxCell id="341" style="edgeStyle=none;html=1;exitX=1;exitY=1;exitDx=0;exitDy=0;entryX=0.25;entryY=0;entryDx=0;entryDy=0;fontSize=12;fontColor=#FFFFFF;fillColor=#1ba1e2;strokeColor=#FFFFFF;" edge="1" parent="1" source="342" target="340">
                    <mxGeometry relative="1" as="geometry"/>
                </mxCell>
                <mxCell id="342" value="&lt;span style=&quot;font-size: 12px; text-align: left;&quot;&gt;ID&lt;/span&gt;" style="ellipse;whiteSpace=wrap;html=1;fontSize=17;fontColor=#FFFFFF;fillColor=#1ba1e2;strokeColor=#006EAF;" vertex="1" parent="1">
                    <mxGeometry x="1105" y="1100" width="100" height="40" as="geometry"/>
                </mxCell>
                <mxCell id="345" style="edgeStyle=none;html=1;exitX=0.5;exitY=1;exitDx=0;exitDy=0;fontSize=12;fontColor=#FFFFFF;fillColor=#1ba1e2;strokeColor=#FFFFFF;" edge="1" parent="1" source="346">
                    <mxGeometry relative="1" as="geometry">
                        <mxPoint x="1325" y="1180" as="targetPoint"/>
                    </mxGeometry>
                </mxCell>
                <mxCell id="346" value="&lt;span style=&quot;font-family: Söhne, ui-sans-serif, system-ui, -apple-system, &amp;quot;Segoe UI&amp;quot;, Roboto, Ubuntu, Cantarell, &amp;quot;Noto Sans&amp;quot;, sans-serif, &amp;quot;Helvetica Neue&amp;quot;, Arial, &amp;quot;Apple Color Emoji&amp;quot;, &amp;quot;Segoe UI Emoji&amp;quot;, &amp;quot;Segoe UI Symbol&amp;quot;, &amp;quot;Noto Color Emoji&amp;quot;; font-size: 14px; text-align: left;&quot;&gt;Palabra&lt;/span&gt;" style="ellipse;whiteSpace=wrap;html=1;fontSize=17;fontColor=#FFFFFF;fillColor=#1ba1e2;strokeColor=#006EAF;" vertex="1" parent="1">
                    <mxGeometry x="1335" y="1100" width="100" height="40" as="geometry"/>
                </mxCell>
                <mxCell id="347" style="edgeStyle=none;html=1;exitX=1;exitY=1;exitDx=0;exitDy=0;entryX=0.343;entryY=1.025;entryDx=0;entryDy=0;fontSize=12;fontColor=#FFFFFF;entryPerimeter=0;fillColor=#1ba1e2;strokeColor=#FFFFFF;" edge="1" parent="1" source="348" target="340">
                    <mxGeometry relative="1" as="geometry">
                        <mxPoint x="1222.5" y="1330" as="targetPoint"/>
                    </mxGeometry>
                </mxCell>
                <mxCell id="348" value="&lt;span style=&quot;font-family: Söhne, ui-sans-serif, system-ui, -apple-system, &amp;quot;Segoe UI&amp;quot;, Roboto, Ubuntu, Cantarell, &amp;quot;Noto Sans&amp;quot;, sans-serif, &amp;quot;Helvetica Neue&amp;quot;, Arial, &amp;quot;Apple Color Emoji&amp;quot;, &amp;quot;Segoe UI Emoji&amp;quot;, &amp;quot;Segoe UI Symbol&amp;quot;, &amp;quot;Noto Color Emoji&amp;quot;; font-size: 14px; text-align: left;&quot;&gt;EsCorrecto&lt;/span&gt;" style="ellipse;whiteSpace=wrap;html=1;fontSize=17;fontColor=#FFFFFF;fillColor=#1ba1e2;strokeColor=#006EAF;" vertex="1" parent="1">
                    <mxGeometry x="1115" y="1250" width="100" height="40" as="geometry"/>
                </mxCell>
                <mxCell id="349" style="edgeStyle=none;html=1;exitX=0.5;exitY=1;exitDx=0;exitDy=0;entryX=0.605;entryY=1.025;entryDx=0;entryDy=0;fontSize=12;fontColor=#FFFFFF;entryPerimeter=0;fillColor=#1ba1e2;strokeColor=#FFFFFF;" edge="1" parent="1" source="350" target="340">
                    <mxGeometry relative="1" as="geometry">
                        <mxPoint x="1270" y="1330" as="targetPoint"/>
                    </mxGeometry>
                </mxCell>
                <mxCell id="350" value="&lt;span style=&quot;font-family: Söhne, ui-sans-serif, system-ui, -apple-system, &amp;quot;Segoe UI&amp;quot;, Roboto, Ubuntu, Cantarell, &amp;quot;Noto Sans&amp;quot;, sans-serif, &amp;quot;Helvetica Neue&amp;quot;, Arial, &amp;quot;Apple Color Emoji&amp;quot;, &amp;quot;Segoe UI Emoji&amp;quot;, &amp;quot;Segoe UI Symbol&amp;quot;, &amp;quot;Noto Color Emoji&amp;quot;; font-size: 14px; text-align: left;&quot;&gt;EsIncorrecto&lt;/span&gt;" style="ellipse;whiteSpace=wrap;html=1;fontSize=17;fontColor=#FFFFFF;fillColor=#1ba1e2;strokeColor=#006EAF;" vertex="1" parent="1">
                    <mxGeometry x="1275" y="1250" width="100" height="40" as="geometry"/>
                </mxCell>
                <mxCell id="358" style="edgeStyle=none;html=1;exitX=1;exitY=0;exitDx=0;exitDy=0;entryX=0.25;entryY=1;entryDx=0;entryDy=0;fontColor=#FFFFFF;" edge="1" parent="1" source="357" target="296">
                    <mxGeometry relative="1" as="geometry"/>
                </mxCell>
                <mxCell id="357" value="&lt;span style=&quot;font-family: Söhne, ui-sans-serif, system-ui, -apple-system, &amp;quot;Segoe UI&amp;quot;, Roboto, Ubuntu, Cantarell, &amp;quot;Noto Sans&amp;quot;, sans-serif, &amp;quot;Helvetica Neue&amp;quot;, Arial, &amp;quot;Apple Color Emoji&amp;quot;, &amp;quot;Segoe UI Emoji&amp;quot;, &amp;quot;Segoe UI Symbol&amp;quot;, &amp;quot;Noto Color Emoji&amp;quot;; font-size: 14px; text-align: left;&quot;&gt;Palabra&lt;/span&gt;" style="ellipse;whiteSpace=wrap;html=1;fontSize=17;fillColor=#1ba1e2;fontColor=#FFFFFF;strokeColor=#006EAF;" vertex="1" parent="1">
                    <mxGeometry x="750" y="920" width="100" height="40" as="geometry"/>
                </mxCell>
                <mxCell id="362" style="edgeStyle=none;html=1;exitX=0;exitY=0;exitDx=0;exitDy=0;entryX=0.75;entryY=1;entryDx=0;entryDy=0;fontColor=#FFFFFF;" edge="1" parent="1" source="359" target="296">
                    <mxGeometry relative="1" as="geometry"/>
                </mxCell>
                <mxCell id="359" value="&lt;span style=&quot;font-family: Söhne, ui-sans-serif, system-ui, -apple-system, &amp;quot;Segoe UI&amp;quot;, Roboto, Ubuntu, Cantarell, &amp;quot;Noto Sans&amp;quot;, sans-serif, &amp;quot;Helvetica Neue&amp;quot;, Arial, &amp;quot;Apple Color Emoji&amp;quot;, &amp;quot;Segoe UI Emoji&amp;quot;, &amp;quot;Segoe UI Symbol&amp;quot;, &amp;quot;Noto Color Emoji&amp;quot;; font-size: 14px; text-align: left;&quot;&gt;Estado&lt;/span&gt;" style="ellipse;whiteSpace=wrap;html=1;fontSize=17;fillColor=#1ba1e2;fontColor=#FFFFFF;strokeColor=#006EAF;" vertex="1" parent="1">
                    <mxGeometry x="960" y="910" width="100" height="40" as="geometry"/>
                </mxCell>
            </root>
        </mxGraphModel>
    </diagram>
</mxfile>